<svg width="64" height="64" viewBox="0 0 64 64" fill="none" xmlns="http://www.w3.org/2000/svg">
  <rect width="64" height="64" rx="16" fill="#07130E"/>
  <path d="M16 43V17H34.2C39.8 17 44 20.9 44 26.1C44 31.5 39.8 35.4 34.2 35.4H25.2V43H16Z" fill="#22C55E"/>
  <path d="M25.2 27.9H33.1C34.8 27.9 35.9 27.1 35.9 25.8C35.9 24.5 34.8 23.7 33.1 23.7H25.2V27.9Z" fill="#07130E"/>
  <path d="M39.5 43C43.9 43 47.4 39.5 47.4 35.1C47.4 30.7 43.9 27.2 39.5 27.2C35.1 27.2 31.6 30.7 31.6 35.1C31.6 39.5 35.1 43 39.5 43Z" fill="#38BDF8"/>
  <path d="M39.5 38.4C41.3 38.4 42.8 36.9 42.8 35.1C42.8 33.3 41.3 31.8 39.5 31.8C37.7 31.8 36.2 33.3 36.2 35.1C36.2 36.9 37.7 38.4 39.5 38.4Z" fill="#07130E"/>
</svg>
